{
    "asset" : {
        "generator" : "Khronos glTF Blender I/O v1.3.48",
        "version" : "2.0"
    },
    "scene" : 0,
    "scenes" : [
        {
            "name" : "Scene",
            "nodes" : [
                0,
                1
            ]
        }
    ],
    "nodes" : [
        {
            "mesh" : 0,
            "name" : "beam",
            "scale" : [
                1,
                0.17512649297714233,
                1
            ],
            "translation" : [
                0,
                -9.370384216308594,
                0
            ]
        },
        {
            "mesh" : 1,
            "name" : "beam_static",
            "scale" : [
                1,
                0.07681542634963989,
                1
            ]
        }
    ],
    "animations" : [
        {
            "channels" : [
                {
                    "sampler" : 0,
                    "target" : {
                        "node" : 0,
                        "path" : "translation"
                    }
                }
            ],
            "name" : "beamAction.001",
            "samplers" : [
                {
                    "input" : 8,
                    "interpolation" : "LINEAR",
                    "output" : 9
                }
            ]
        }
    ],
    "materials" : [
        {
            "alphaCutoff" : 0.5,
            "alphaMode" : "MASK",
            "doubleSided" : true,
            "emissiveFactor" : [
                0.12745416164398193,
                0.33055049180984497,
                0.31615033745765686
            ],
            "name" : "beam_mat",
            "pbrMetallicRoughness" : {
                "baseColorTexture" : {
                    "index" : 0,
                    "texCoord" : 0
                },
                "metallicFactor" : 0,
                "roughnessFactor" : 0.13285022974014282
            }
        },
        {
            "alphaMode" : "BLEND",
            "doubleSided" : true,
            "emissiveFactor" : [
                0.07587490975856781,
                0.22639255225658417,
                0.38788631558418274
            ],
            "name" : "beam_blue",
            "pbrMetallicRoughness" : {
                "baseColorTexture" : {
                    "index" : 1,
                    "texCoord" : 0
                },
                "metallicFactor" : 0,
                "roughnessFactor" : 0.7801932096481323
            }
        }
    ],
    "meshes" : [
        {
            "name" : "Cylinder.009",
            "primitives" : [
                {
                    "attributes" : {
                        "POSITION" : 0,
                        "NORMAL" : 1,
                        "TEXCOORD_0" : 2
                    },
                    "indices" : 3,
                    "material" : 0
                }
            ]
        },
        {
            "name" : "Cylinder.019",
            "primitives" : [
                {
                    "attributes" : {
                        "POSITION" : 4,
                        "NORMAL" : 5,
                        "TEXCOORD_0" : 6
                    },
                    "indices" : 7,
                    "material" : 1
                }
            ]
        }
    ],
    "textures" : [
        {
            "source" : 0
        },
        {
            "source" : 1
        }
    ],
    "images" : [
        {
            "bufferView" : 4,
            "mimeType" : "image/png",
            "name" : "beam_stripes"
        },
        {
            "bufferView" : 9,
            "mimeType" : "image/png",
            "name" : "beam_blue_gradient"
        }
    ],
    "accessors" : [
        {
            "bufferView" : 0,
            "componentType" : 5126,
            "count" : 172,
            "max" : [
                2.9594566822052,
                95.54776000976562,
                2.9594566822052
            ],
            "min" : [
                -2.9594566822052,
                -6.805271148681641,
                -2.9594566822052
            ],
            "type" : "VEC3"
        },
        {
            "bufferView" : 1,
            "componentType" : 5126,
            "count" : 172,
            "type" : "VEC3"
        },
        {
            "bufferView" : 2,
            "componentType" : 5126,
            "count" : 172,
            "type" : "VEC2"
        },
        {
            "bufferView" : 3,
            "componentType" : 5123,
            "count" : 390,
            "type" : "SCALAR"
        },
        {
            "bufferView" : 5,
            "componentType" : 5126,
            "count" : 99,
            "max" : [
                2.1759891510009766,
                95.54776000976562,
                2.1759886741638184
            ],
            "min" : [
                -2.1759889125823975,
                -6.805271148681641,
                -2.1759889125823975
            ],
            "type" : "VEC3"
        },
        {
            "bufferView" : 6,
            "componentType" : 5126,
            "count" : 99,
            "type" : "VEC3"
        },
        {
            "bufferView" : 7,
            "componentType" : 5126,
            "count" : 99,
            "type" : "VEC2"
        },
        {
            "bufferView" : 8,
            "componentType" : 5123,
            "count" : 384,
            "type" : "SCALAR"
        },
        {
            "bufferView" : 10,
            "componentType" : 5126,
            "count" : 81,
            "max" : [
                3.3333333333333335
            ],
            "min" : [
                0
            ],
            "type" : "SCALAR"
        },
        {
            "bufferView" : 11,
            "componentType" : 5126,
            "count" : 81,
            "type" : "VEC3"
        }
    ],
    "bufferViews" : [
        {
            "buffer" : 0,
            "byteLength" : 2064,
            "byteOffset" : 0
        },
        {
            "buffer" : 0,
            "byteLength" : 2064,
            "byteOffset" : 2064
        },
        {
            "buffer" : 0,
            "byteLength" : 1376,
            "byteOffset" : 4128
        },
        {
            "buffer" : 0,
            "byteLength" : 780,
            "byteOffset" : 5504
        },
        {
            "buffer" : 0,
            "byteLength" : 5692,
            "byteOffset" : 6284
        },
        {
            "buffer" : 0,
            "byteLength" : 1188,
            "byteOffset" : 11976
        },
        {
            "buffer" : 0,
            "byteLength" : 1188,
            "byteOffset" : 13164
        },
        {
            "buffer" : 0,
            "byteLength" : 792,
            "byteOffset" : 14352
        },
        {
            "buffer" : 0,
            "byteLength" : 768,
            "byteOffset" : 15144
        },
        {
            "buffer" : 0,
            "byteLength" : 1704,
            "byteOffset" : 15912
        },
        {
            "buffer" : 0,
            "byteLength" : 324,
            "byteOffset" : 17616
        },
        {
            "buffer" : 0,
            "byteLength" : 972,
            "byteOffset" : 17940
        }
    ],
    "buffers" : [
        {
            "byteLength" : 18912,
            "uri" : "data:application/octet-stream;base64,"
        }
    ]
}
