{
    "asset" : {
        "generator" : "Khronos glTF Blender I/O v1.6.16",
        "version" : "2.0"
    },
    "scene" : 0,
    "scenes" : [
        {
            "name" : "Scene",
            "nodes" : [
                0,
                1,
                2,
                3,
                4,
                5,
                6,
                7
            ]
        }
    ],
    "nodes" : [
        {
            "mesh" : 0,
            "name" : "Top"
        },
        {
            "mesh" : 1,
            "name" : "Mid",
            "scale" : [
                1,
                0.857142984867096,
                1
            ]
        },
        {
            "mesh" : 2,
            "name" : "Bottom"
        },
        {
            "mesh" : 3,
            "name" : "Bottom_collider",
            "scale" : [
                1,
                0.20000000298023224,
                1
            ]
        },
        {
            "mesh" : 4,
            "name" : "Top_collider",
            "scale" : [
                1,
                0.125,
                1
            ],
            "translation" : [
                0,
                0.6499999761581421,
                0
            ]
        },
        {
            "mesh" : 5,
            "name" : "Cube_collider",
            "scale" : [
                0.2750000059604645,
                0.2750000059604645,
                0.5
            ],
            "translation" : [
                -2.2875101566314697,
                1.068459153175354,
                0
            ]
        },
        {
            "mesh" : 6,
            "name" : "Stairs",
            "scale" : [
                1,
                1.2000000476837158,
                1
            ],
            "translation" : [
                -1.0125055313110352,
                0.6500000357627869,
                0
            ]
        },
        {
            "mesh" : 7,
            "name" : "Stairs-top",
            "scale" : [
                1,
                1.100000023841858,
                1
            ],
            "translation" : [
                -2.2875101566314697,
                1.068459153175354,
                0
            ]
        }
    ],
    "materials" : [
        {
            "doubleSided" : true,
            "name" : "Material.001",
            "pbrMetallicRoughness" : {
                "baseColorTexture" : {
                    "index" : 0
                },
                "metallicFactor" : 0,
                "roughnessFactor" : 0.5
            }
        }
    ],
    "meshes" : [
        {
            "name" : "Cylinder.001",
            "primitives" : [
                {
                    "attributes" : {
                        "POSITION" : 0,
                        "NORMAL" : 1,
                        "TEXCOORD_0" : 2
                    },
                    "indices" : 3,
                    "material" : 0
                }
            ]
        },
        {
            "name" : "Cylinder.004",
            "primitives" : [
                {
                    "attributes" : {
                        "POSITION" : 4,
                        "NORMAL" : 5,
                        "TEXCOORD_0" : 6
                    },
                    "indices" : 7,
                    "material" : 0
                }
            ]
        },
        {
            "name" : "Cylinder.005",
            "primitives" : [
                {
                    "attributes" : {
                        "POSITION" : 8,
                        "NORMAL" : 9,
                        "TEXCOORD_0" : 10
                    },
                    "indices" : 11,
                    "material" : 0
                }
            ]
        },
        {
            "name" : "Cylinder.007",
            "primitives" : [
                {
                    "attributes" : {
                        "POSITION" : 12,
                        "NORMAL" : 13,
                        "TEXCOORD_0" : 14
                    },
                    "indices" : 15
                }
            ]
        },
        {
            "name" : "Cylinder.008",
            "primitives" : [
                {
                    "attributes" : {
                        "POSITION" : 16,
                        "NORMAL" : 17,
                        "TEXCOORD_0" : 18
                    },
                    "indices" : 19
                }
            ]
        },
        {
            "name" : "Cube.002",
            "primitives" : [
                {
                    "attributes" : {
                        "POSITION" : 20,
                        "NORMAL" : 21,
                        "TEXCOORD_0" : 22
                    },
                    "indices" : 23
                }
            ]
        },
        {
            "name" : "Cube.003",
            "primitives" : [
                {
                    "attributes" : {
                        "POSITION" : 24,
                        "NORMAL" : 25,
                        "TEXCOORD_0" : 26
                    },
                    "indices" : 27,
                    "material" : 0
                }
            ]
        },
        {
            "name" : "Cube.004",
            "primitives" : [
                {
                    "attributes" : {
                        "POSITION" : 28,
                        "NORMAL" : 29,
                        "TEXCOORD_0" : 30
                    },
                    "indices" : 31,
                    "material" : 0
                }
            ]
        }
    ],
    "textures" : [
        {
            "sampler" : 0,
            "source" : 0
        }
    ],
    "images" : [
        {
            "bufferView" : 4,
            "mimeType" : "image/jpeg",
            "name" : "MARBLE_tan_diffuse"
        }
    ],
    "accessors" : [
        {
            "bufferView" : 0,
            "componentType" : 5126,
            "count" : 200,
            "max" : [
                1,
                0.6500000953674316,
                1
            ],
            "min" : [
                -1,
                0.40000006556510925,
                -1
            ],
            "type" : "VEC3"
        },
        {
            "bufferView" : 1,
            "componentType" : 5126,
            "count" : 200,
            "type" : "VEC3"
        },
        {
            "bufferView" : 2,
            "componentType" : 5126,
            "count" : 200,
            "type" : "VEC2"
        },
        {
            "bufferView" : 3,
            "componentType" : 5123,
            "count" : 564,
            "type" : "SCALAR"
        },
        {
            "bufferView" : 5,
            "componentType" : 5126,
            "count" : 66,
            "max" : [
                0.5,
                0.46666669845581055,
                0.5
            ],
            "min" : [
                -0.5,
                0.11666670441627502,
                -0.5
            ],
            "type" : "VEC3"
        },
        {
            "bufferView" : 6,
            "componentType" : 5126,
            "count" : 66,
            "type" : "VEC3"
        },
        {
            "bufferView" : 7,
            "componentType" : 5126,
            "count" : 66,
            "type" : "VEC2"
        },
        {
            "bufferView" : 8,
            "componentType" : 5123,
            "count" : 72,
            "type" : "SCALAR"
        },
        {
            "bufferView" : 9,
            "componentType" : 5126,
            "count" : 139,
            "max" : [
                0.6000000238418579,
                0.1000000536441803,
                0.6000000238418579
            ],
            "min" : [
                -0.6000000238418579,
                5.960464477539063e-08,
                -0.6000000238418579
            ],
            "type" : "VEC3"
        },
        {
            "bufferView" : 10,
            "componentType" : 5126,
            "count" : 139,
            "type" : "VEC3"
        },
        {
            "bufferView" : 11,
            "componentType" : 5126,
            "count" : 139,
            "type" : "VEC2"
        },
        {
            "bufferView" : 12,
            "componentType" : 5123,
            "count" : 420,
            "type" : "SCALAR"
        },
        {
            "bufferView" : 13,
            "componentType" : 5126,
            "count" : 52,
            "max" : [
                0.6000000238418579,
                2,
                0.6000000238418579
            ],
            "min" : [
                -0.6000000238418579,
                0,
                -0.6000000238418579
            ],
            "type" : "VEC3"
        },
        {
            "bufferView" : 14,
            "componentType" : 5126,
            "count" : 52,
            "type" : "VEC3"
        },
        {
            "bufferView" : 15,
            "componentType" : 5126,
            "count" : 52,
            "type" : "VEC2"
        },
        {
            "bufferView" : 16,
            "componentType" : 5123,
            "count" : 66,
            "type" : "SCALAR"
        },
        {
            "bufferView" : 17,
            "componentType" : 5126,
            "count" : 98,
            "max" : [
                1,
                -4.76837158203125e-07,
                1
            ],
            "min" : [
                -1,
                -2.000000476837158,
                -1
            ],
            "type" : "VEC3"
        },
        {
            "bufferView" : 18,
            "componentType" : 5126,
            "count" : 98,
            "type" : "VEC3"
        },
        {
            "bufferView" : 19,
            "componentType" : 5126,
            "count" : 98,
            "type" : "VEC2"
        },
        {
            "bufferView" : 20,
            "componentType" : 5123,
            "count" : 132,
            "type" : "SCALAR"
        },
        {
            "bufferView" : 21,
            "componentType" : 5126,
            "count" : 36,
            "max" : [
                4.636363983154297,
                1,
                1
            ],
            "min" : [
                -1,
                -3.514051914215088,
                -1
            ],
            "type" : "VEC3"
        },
        {
            "bufferView" : 22,
            "componentType" : 5126,
            "count" : 36,
            "type" : "VEC3"
        },
        {
            "bufferView" : 23,
            "componentType" : 5126,
            "count" : 36,
            "type" : "VEC2"
        },
        {
            "bufferView" : 24,
            "componentType" : 5123,
            "count" : 60,
            "type" : "SCALAR"
        },
        {
            "bufferView" : 25,
            "componentType" : 5126,
            "count" : 116,
            "max" : [
                -4.410743713378906e-06,
                0.44999998807907104,
                0.5
            ],
            "min" : [
                -1.0000617504119873,
                -0.5000000596046448,
                -0.5
            ],
            "type" : "VEC3"
        },
        {
            "bufferView" : 26,
            "componentType" : 5126,
            "count" : 116,
            "type" : "VEC3"
        },
        {
            "bufferView" : 27,
            "componentType" : 5126,
            "count" : 116,
            "type" : "VEC2"
        },
        {
            "bufferView" : 28,
            "componentType" : 5123,
            "count" : 180,
            "type" : "SCALAR"
        },
        {
            "bufferView" : 29,
            "componentType" : 5126,
            "count" : 24,
            "max" : [
                0.2750000059604645,
                0.25,
                0.5
            ],
            "min" : [
                -0.2750000059604645,
                -0.25,
                -0.5
            ],
            "type" : "VEC3"
        },
        {
            "bufferView" : 30,
            "componentType" : 5126,
            "count" : 24,
            "type" : "VEC3"
        },
        {
            "bufferView" : 31,
            "componentType" : 5126,
            "count" : 24,
            "type" : "VEC2"
        },
        {
            "bufferView" : 32,
            "componentType" : 5123,
            "count" : 36,
            "type" : "SCALAR"
        }
    ],
    "bufferViews" : [
        {
            "buffer" : 0,
            "byteLength" : 2400,
            "byteOffset" : 0
        },
        {
            "buffer" : 0,
            "byteLength" : 2400,
            "byteOffset" : 2400
        },
        {
            "buffer" : 0,
            "byteLength" : 1600,
            "byteOffset" : 4800
        },
        {
            "buffer" : 0,
            "byteLength" : 1128,
            "byteOffset" : 6400
        },
        {
            "buffer" : 0,
            "byteLength" : 182039,
            "byteOffset" : 7528
        },
        {
            "buffer" : 0,
            "byteLength" : 792,
            "byteOffset" : 189568
        },
        {
            "buffer" : 0,
            "byteLength" : 792,
            "byteOffset" : 190360
        },
        {
            "buffer" : 0,
            "byteLength" : 528,
            "byteOffset" : 191152
        },
        {
            "buffer" : 0,
            "byteLength" : 144,
            "byteOffset" : 191680
        },
        {
            "buffer" : 0,
            "byteLength" : 1668,
            "byteOffset" : 191824
        },
        {
            "buffer" : 0,
            "byteLength" : 1668,
            "byteOffset" : 193492
        },
        {
            "buffer" : 0,
            "byteLength" : 1112,
            "byteOffset" : 195160
        },
        {
            "buffer" : 0,
            "byteLength" : 840,
            "byteOffset" : 196272
        },
        {
            "buffer" : 0,
            "byteLength" : 624,
            "byteOffset" : 197112
        },
        {
            "buffer" : 0,
            "byteLength" : 624,
            "byteOffset" : 197736
        },
        {
            "buffer" : 0,
            "byteLength" : 416,
            "byteOffset" : 198360
        },
        {
            "buffer" : 0,
            "byteLength" : 132,
            "byteOffset" : 198776
        },
        {
            "buffer" : 0,
            "byteLength" : 1176,
            "byteOffset" : 198908
        },
        {
            "buffer" : 0,
            "byteLength" : 1176,
            "byteOffset" : 200084
        },
        {
            "buffer" : 0,
            "byteLength" : 784,
            "byteOffset" : 201260
        },
        {
            "buffer" : 0,
            "byteLength" : 264,
            "byteOffset" : 202044
        },
        {
            "buffer" : 0,
            "byteLength" : 432,
            "byteOffset" : 202308
        },
        {
            "buffer" : 0,
            "byteLength" : 432,
            "byteOffset" : 202740
        },
        {
            "buffer" : 0,
            "byteLength" : 288,
            "byteOffset" : 203172
        },
        {
            "buffer" : 0,
            "byteLength" : 120,
            "byteOffset" : 203460
        },
        {
            "buffer" : 0,
            "byteLength" : 1392,
            "byteOffset" : 203580
        },
        {
            "buffer" : 0,
            "byteLength" : 1392,
            "byteOffset" : 204972
        },
        {
            "buffer" : 0,
            "byteLength" : 928,
            "byteOffset" : 206364
        },
        {
            "buffer" : 0,
            "byteLength" : 360,
            "byteOffset" : 207292
        },
        {
            "buffer" : 0,
            "byteLength" : 288,
            "byteOffset" : 207652
        },
        {
            "buffer" : 0,
            "byteLength" : 288,
            "byteOffset" : 207940
        },
        {
            "buffer" : 0,
            "byteLength" : 192,
            "byteOffset" : 208228
        },
        {
            "buffer" : 0,
            "byteLength" : 72,
            "byteOffset" : 208420
        }
    ],
    "samplers" : [
        {
            "magFilter" : 9729,
            "minFilter" : 9987
        }
    ],
    "buffers" : [
        {
            "byteLength" : 208492,
            "uri" : "data:application/octet-stream;base64,"
        }
    ]
}
